<?xml version="1.0" standalone="no"?><!DOCTYPE svg PUBLIC "-//W3C//DTD SVG 1.1//EN" "http://www.w3.org/Graphics/SVG/1.1/DTD/svg11.dtd"><svg t="1646828305866" class="icon" viewBox="0 0 1024 1024" version="1.1" xmlns="http://www.w3.org/2000/svg" p-id="7151" xmlns:xlink="http://www.w3.org/1999/xlink" width="200" height="200"><defs><style type="text/css"></style></defs><path d="M15.8 466.4c0 166.5 88.8 320.3 233 403.6 144.2 83.2 321.8 83.2 466 0s233-237.1 233-403.6c0-166.5-88.8-320.3-233-403.5-144.2-83.2-321.8-83.2-466 0-144.2 83.1-233 237-233 403.5z m0 0" fill="#E9EAEB" p-id="7152"></path><path d="M393.9 373.8c14.8 0 90.8-140.4 107.6-161.9 5.8-7.4 6.9-11.1 2.6-16.5-4.4-5.4-14.4-5-25.4-1.9-20.5 5.9-45.7 0-73.9-8.4-57.1-16.1-139.7-38.9-172.8 20.2-3.2 5.8-1 5.1 5.4 12 17.4 18.8 90.5 156.4 105.4 156.4h51.1z m0 0" fill="#A3D4FF" p-id="7153"></path><path d="M393.9 390.5h-51.1c-16 0-27.3-14.8-80.9-103.5-14.8-24.3-31.2-51.7-36.9-58-1.2-1.3-2.2-2.3-3-3-8.7-6.8-10.7-19.1-4.6-28.3 39.8-71.1 134.8-44.3 191.5-28 24.9 7.4 48.6 13.1 65.1 8.4 19.8-5.6 34.1-3.2 42.8 7.4 13.7 16.6 2.1 31.6-2.3 36.9-4.4 5.3-18 28.2-31.7 51.2-62.9 105.3-73.7 116.9-88.9 116.9z m-46.2-33.4h41.9c12.1-12.9 46-69.5 64.7-100.9 12.8-21.4 22.2-36.9 28.5-46.6-24.7 6.9-52.2 0-82.8-8.5-63.3-18-122.2-30.8-149.3 5.9 14.5 20 27.8 40.8 39.8 62.4 17.4 29.1 45.8 76.3 57.2 87.7z m0 0" fill="#2A5082" p-id="7154"></path><path d="M430.1 341.5c-54.5-33.1-109.9-18.5-144.3 0C114.5 433.5 45.4 612 45.4 699.6c0 177.4 140 223.3 312.5 223.3 172.6 0 312.5-43.6 312.5-220.8 0.1-85.2-73.5-259.2-240.3-360.6z m0 0" fill="#A3D4FF" p-id="7155"></path><path d="M357.9 939.6c-221.7 0-329.2-78.5-329.2-240 0-99.3 77.3-280.8 249.2-372.8 25.6-13.7 92.4-41.2 160.7 0.4C610 431.5 687 609.2 687 702.1c0.1 237.5-247.6 237.5-329.1 237.5z m2.5-601.3c-23.3 0.5-46.1 6.6-66.5 17.8C118.6 450.1 62 628.1 62 699.6c0 141 94 206.9 295.6 206.9 204.6 0 295.6-63 295.6-204.2 0-82.7-73.9-249.9-232.4-346.4-18.1-11.3-39-17.4-60.4-17.6z m0 0" fill="#2A5082" p-id="7156"></path><path d="M135.8 683.7h-33.3c0-76.8 59.7-217 192.1-288.2l15.7 29.6c-131.7 70.6-174.5 204.7-174.5 258.6z m238.8 72.8h-33.3c-13.3 0-26-5.3-35.4-14.7-9.4-9.4-14.6-22.2-14.5-35.4h33.3c0 9.2 7.4 16.6 16.6 16.6h33.3c4.4 0 8.7-1.7 11.8-4.8 3.1-3.1 4.9-7.4 4.9-11.8v-9c0-7.1-4.6-13.5-11.4-15.7l-54.3-18.2c-20.4-6.8-34.2-25.9-34.1-47.4v-9.2c0-27.6 22.3-49.9 49.9-50h33.3c27.6 0 49.9 22.4 49.9 50h-33.3c0-9.2-7.4-16.6-16.6-16.6h-33.3c-9.2 0-16.6 7.4-16.6 16.6v9.3c0 7.2 4.6 13.6 11.4 15.8l54.3 18.1c20.4 6.8 34.2 25.9 34.1 47.4v8.9c0.1 13.3-5.2 26.1-14.6 35.5-9.4 9.3-22.2 14.6-35.4 14.6z m0 0" fill="#2A5082" p-id="7157"></path><path d="M341.3 523.6h33.3v49.9h-33.3v-49.9z m0 216.3h33.3v50h-33.3v-50z m0 0" fill="#2A5082" p-id="7158"></path><path d="M624.2 174.1h33.3v99.8h-33.3z" fill="#BCC0C4" p-id="7159"></path><path d="M590.9 207.4h99.8v33.3h-99.8v-33.3z m166.4 83.1h33.3v99.8h-33.3v-99.8z m0 0" fill="#BCC0C4" p-id="7160"></path><path d="M724 323.9h99.8v33.3H724z" fill="#BCC0C4" p-id="7161"></path><path d="M640.8 490.3c-64.4 0-116.5 22.2-116.5 50v416c0 27.6 52.2 50 116.5 50s116.5-22.2 116.5-50V540.2c0-27.6-52.1-49.9-116.5-49.9z m233 183c-64.4 0-116.5 22.2-116.5 50v166.4c0 27.6 52.2 50 116.5 50s116.5-22.2 116.5-50V723.2c0-27.5-52.2-49.9-116.5-49.9z m0 0" fill="#FFFFFF" p-id="7162"></path><path d="M640.8 690c-66.5 0-133-22.8-133-66.5v-83.3h33.3v83.2c0 11.8 37.9 33.3 99.8 33.3s99.8-21.6 99.8-33.3v-83.2H774v83.2c-0.1 43.7-67 66.6-133.2 66.6z m0 0" fill="#2A5082" p-id="7163"></path><path d="M640.8 772.8c-66.5 0-133-22.8-133-66.5v-82.9h33.3v82.9c0 11.7 37.9 33.3 99.8 33.3s99.8-21.6 99.8-33.3v-82.9H774v82.9c-0.1 44.4-67 66.5-133.2 66.5z m0 0" fill="#2A5082" p-id="7164"></path><path d="M640.8 856.3c-66.5 0-133-22.8-133-66.5v-83.5h33.3v83.5c0 11.8 37.9 33.3 99.8 33.3s99.8-21.6 99.8-33.3v-83.5H774v83.5c-0.1 43.7-67 66.5-133.2 66.5z m0 0" fill="#2A5082" p-id="7165"></path><path d="M640.8 939.6c-66.5 0-133-22.8-133-66.5v-83.2h33.3V873c0 11.8 37.9 33.3 99.8 33.3s99.8-21.6 99.8-33.3v-83.2H774V873c-0.1 43.7-67 66.6-133.2 66.6z m0 0" fill="#2A5082" p-id="7166"></path><path d="M640.8 1022.8c-66.5 0-133-22.8-133-66.5V873h33.3v83.2c0 11.7 37.9 33.3 99.8 33.3s99.8-21.6 99.8-33.3V873H774v83.2c-0.1 43.7-67 66.6-133.2 66.6z m0-416c-66.5 0-133-22.8-133-66.5s67-66.5 133-66.5c66.1 0 133 22.8 133 66.5s-66.8 66.5-133 66.5z m0-99.9c-61.9 0-99.8 21.6-99.8 33.3 0 11.7 37.9 33.1 99.8 33.1s99.8-21.6 99.8-33.3c0-11.7-38.2-33.3-99.8-33.3v0.2z m233 366.1c-66.5 0-133-22.8-133-66.5v-83.2h33.3v83.2c0 11.8 37.9 33.3 99.8 33.3s99.8-21.6 99.8-33.3v-83.2h33.3v83.2c-0.1 43.6-67 66.5-133.2 66.5z m0 0" fill="#2A5082" p-id="7167"></path><path d="M873.8 956.2c-66.5 0-133-22.8-133-66.5v-83.2h33.3v83.2c0 11.8 37.9 33.3 99.8 33.3s99.8-21.6 99.8-33.3v-83.2h33.3v83.2c-0.1 43.6-67 66.5-133.2 66.5z m0-166.4c-66.5 0-133-22.8-133-66.5s67-66.5 133-66.5c66.1 0 133 22.8 133 66.5s-66.8 66.5-133 66.5z m0-99.8c-61.9 0-99.8 21.6-99.8 33.3 0 11.7 37.9 33.3 99.8 33.3s99.8-21.6 99.8-33.3c0.1-11.7-37.8-33.3-99.8-33.3z m0 0" fill="#2A5082" p-id="7168"></path></svg>